<svg width="256" height="256" viewBox="0 0 256 256" fill="none" xmlns="http://www.w3.org/2000/svg">
<circle cx="128" cy="128" r="128" fill="#414040"/>
<circle cx="128" cy="128" r="124" stroke="#F2F2F2" stroke-width="2"/>
<circle cx="128" cy="128" r="119" stroke="#F2F2F2" stroke-width="2"/>
<path d="M66 124.703C66.0312 124.766 66.2656 124.984 66.7031 125.359C67.1406 125.703 67.75 126.094 68.5312 126.531C69.3438 126.969 70.3281 127.359 71.4844 127.703C72.6406 128.047 73.9531 128.219 75.4219 128.219C77.8906 128.219 80.2188 127.75 82.4062 126.812C84.5938 125.875 86.6094 124.641 88.4531 123.109C90.3281 121.578 92 119.828 93.4688 117.859C94.9688 115.891 96.2344 113.875 97.2656 111.812C98.2969 109.75 99.0938 107.719 99.6562 105.719C100.219 103.719 100.5 101.922 100.5 100.328C100.5 98.4219 100.219 96.7656 99.6562 95.3594C99.0938 93.9531 98.3281 92.7969 97.3594 91.8906C96.4219 90.9844 95.2969 90.3125 93.9844 89.875C92.7031 89.4375 91.3125 89.2188 89.8125 89.2188C86.8438 89.2188 83.8906 89.75 80.9531 90.8125C78.0469 91.8438 75.2188 93.2656 72.4688 95.0781C69.7188 96.8906 67.0781 99.0312 64.5469 101.5C62.0156 103.938 59.6562 106.562 57.4688 109.375C55.2812 112.188 53.2969 115.125 51.5156 118.188C49.7344 121.219 48.2031 124.234 46.9219 127.234C45.6719 130.234 44.7031 133.156 44.0156 136C43.3281 138.812 42.9844 141.406 42.9844 143.781C42.9844 146.531 43.375 149.125 44.1562 151.562C44.9688 154 46.1719 156.125 47.7656 157.938C49.3594 159.75 51.3438 161.172 53.7188 162.203C56.125 163.266 58.9219 163.797 62.1094 163.797C64.9531 163.797 67.9062 163.359 70.9688 162.484C74.0312 161.609 77.0781 160.203 80.1094 158.266C83.1719 156.328 86.1875 153.828 89.1562 150.766C92.125 147.672 94.9688 143.922 97.6875 139.516L99.375 140.828C96.4375 145.609 93.375 149.625 90.1875 152.875C87 156.125 83.8125 158.734 80.625 160.703C77.4375 162.703 74.2969 164.125 71.2031 164.969C68.1094 165.844 65.1719 166.281 62.3906 166.281C58.3906 166.281 54.8594 165.562 51.7969 164.125C48.7344 162.719 46.1719 160.859 44.1094 158.547C42.0469 156.234 40.4844 153.609 39.4219 150.672C38.3906 147.703 37.875 144.688 37.875 141.625C37.875 139 38.2344 136.203 38.9531 133.234C39.7031 130.266 40.75 127.25 42.0938 124.188C43.4375 121.125 45.0469 118.062 46.9219 115C48.8281 111.938 50.9375 109.016 53.25 106.234C55.5938 103.422 58.125 100.812 60.8438 98.4062C63.5625 96 66.4062 93.9219 69.375 92.1719C72.375 90.3906 75.4531 89 78.6094 88C81.7969 86.9688 85.0312 86.4531 88.3125 86.4531C90.375 86.4531 92.3438 86.75 94.2188 87.3438C96.125 87.9062 97.7969 88.8125 99.2344 90.0625C100.672 91.3125 101.812 92.9219 102.656 94.8906C103.5 96.8281 103.922 99.1719 103.922 101.922C103.922 103.766 103.641 105.766 103.078 107.922C102.516 110.078 101.688 112.25 100.594 114.438C99.5312 116.594 98.2188 118.688 96.6562 120.719C95.125 122.75 93.375 124.547 91.4062 126.109C89.4688 127.641 87.3125 128.875 84.9375 129.812C82.5938 130.75 80.0938 131.219 77.4375 131.219C74.5938 131.219 72.1094 130.75 69.9844 129.812C67.8906 128.844 66.0938 127.656 64.5938 126.25L66 124.703ZM134.875 147.625C135.875 147.438 136.885 147.344 137.906 147.344C139.198 147.344 140.458 147.531 141.688 147.906C142.917 148.281 144.01 148.823 144.969 149.531C145.948 150.219 146.729 151.073 147.312 152.094C147.896 153.115 148.188 154.271 148.188 155.562C148.188 156.708 147.927 157.75 147.406 158.688C146.906 159.625 146.208 160.427 145.312 161.094C144.417 161.781 143.354 162.302 142.125 162.656C140.896 163.031 139.562 163.219 138.125 163.219C136.458 163.219 134.854 163.031 133.312 162.656C131.792 162.302 130.333 161.802 128.938 161.156C127.562 160.51 126.24 159.729 124.969 158.812C123.719 157.917 122.552 156.917 121.469 155.812C119.948 156.521 118.344 157.073 116.656 157.469C114.99 157.885 113.25 158.094 111.438 158.094C109.208 158.094 107.302 157.854 105.719 157.375C104.135 156.917 102.844 156.292 101.844 155.5C100.844 154.688 100.104 153.75 99.625 152.688C99.1667 151.625 98.9375 150.49 98.9375 149.281C98.9375 147.719 99.2917 146.333 100 145.125C100.729 143.896 101.698 142.812 102.906 141.875C104.115 140.917 105.51 140.062 107.094 139.312C108.677 138.562 110.333 137.865 112.062 137.219C111.938 136.26 111.875 135.312 111.875 134.375C111.875 132.229 112.271 130.281 113.062 128.531C113.854 126.781 114.885 125.292 116.156 124.062C117.448 122.833 118.885 121.885 120.469 121.219C122.073 120.531 123.677 120.188 125.281 120.188C126.302 120.188 127.229 120.333 128.062 120.625C128.896 120.917 129.604 121.323 130.188 121.844C130.771 122.344 131.219 122.938 131.531 123.625C131.865 124.312 132.031 125.042 132.031 125.812C132.031 126.896 131.802 127.875 131.344 128.75C130.906 129.604 130.292 130.385 129.5 131.094C128.729 131.802 127.812 132.448 126.75 133.031C125.708 133.615 124.573 134.156 123.344 134.656C122.135 135.156 120.875 135.646 119.562 136.125C118.25 136.583 116.938 137.052 115.625 137.531C115.875 138.698 116.219 139.938 116.656 141.25C117.115 142.562 117.656 143.896 118.281 145.25C118.906 146.583 119.615 147.917 120.406 149.25C121.219 150.583 122.094 151.854 123.031 153.062C124.219 152.354 125.302 151.552 126.281 150.656C127.281 149.76 128.135 148.812 128.844 147.812C129.573 146.792 130.135 145.74 130.531 144.656C130.948 143.573 131.156 142.479 131.156 141.375C131.156 140.542 131.083 139.875 130.938 139.375C130.792 138.875 130.708 138.552 130.688 138.406L132.281 137.969C132.365 138.198 132.469 138.615 132.594 139.219C132.74 139.823 132.812 140.552 132.812 141.406C132.812 142.552 132.604 143.719 132.188 144.906C131.771 146.094 131.177 147.25 130.406 148.375C129.656 149.5 128.74 150.573 127.656 151.594C126.594 152.615 125.406 153.542 124.094 154.375C125.01 155.458 125.979 156.458 127 157.375C128.042 158.292 129.125 159.083 130.25 159.75C131.375 160.417 132.531 160.938 133.719 161.312C134.927 161.688 136.167 161.875 137.438 161.875C138.479 161.875 139.479 161.74 140.438 161.469C141.396 161.198 142.24 160.781 142.969 160.219C143.698 159.677 144.281 158.969 144.719 158.094C145.156 157.24 145.375 156.219 145.375 155.031C145.375 153.969 145.156 153.042 144.719 152.25C144.281 151.438 143.698 150.76 142.969 150.219C142.24 149.656 141.406 149.24 140.469 148.969C139.552 148.677 138.594 148.531 137.594 148.531C137.156 148.531 136.729 148.552 136.312 148.594C135.917 148.635 135.542 148.688 135.188 148.75L134.875 147.625ZM112.312 138.812C111 139.375 109.76 139.979 108.594 140.625C107.448 141.271 106.448 142 105.594 142.812C104.74 143.604 104.062 144.5 103.562 145.5C103.062 146.5 102.812 147.625 102.812 148.875C102.812 149.938 102.979 150.927 103.312 151.844C103.667 152.74 104.208 153.531 104.938 154.219C105.688 154.885 106.635 155.406 107.781 155.781C108.927 156.156 110.302 156.344 111.906 156.344C113.323 156.344 114.74 156.188 116.156 155.875C117.573 155.562 118.938 155.115 120.25 154.531C119.208 153.385 118.26 152.167 117.406 150.875C116.552 149.583 115.792 148.271 115.125 146.938C114.458 145.583 113.885 144.229 113.406 142.875C112.927 141.5 112.562 140.146 112.312 138.812ZM130.281 125.844C130.281 125.365 130.177 124.885 129.969 124.406C129.781 123.927 129.479 123.5 129.062 123.125C128.667 122.75 128.146 122.448 127.5 122.219C126.875 121.99 126.135 121.875 125.281 121.875C124.115 121.875 122.927 122.104 121.719 122.562C120.531 123 119.448 123.708 118.469 124.688C117.51 125.646 116.719 126.896 116.094 128.438C115.49 129.958 115.188 131.792 115.188 133.938C115.188 134.271 115.198 134.615 115.219 134.969C115.24 135.323 115.281 135.688 115.344 136.062C117.24 135.396 119.083 134.74 120.875 134.094C122.667 133.427 124.26 132.708 125.656 131.938C127.052 131.146 128.167 130.26 129 129.281C129.854 128.302 130.281 127.156 130.281 125.844ZM181.312 124.703C181.344 124.766 181.578 124.984 182.016 125.359C182.453 125.703 183.062 126.094 183.844 126.531C184.656 126.969 185.641 127.359 186.797 127.703C187.953 128.047 189.266 128.219 190.734 128.219C193.203 128.219 195.531 127.75 197.719 126.812C199.906 125.875 201.922 124.641 203.766 123.109C205.641 121.578 207.312 119.828 208.781 117.859C210.281 115.891 211.547 113.875 212.578 111.812C213.609 109.75 214.406 107.719 214.969 105.719C215.531 103.719 215.812 101.922 215.812 100.328C215.812 98.4219 215.531 96.7656 214.969 95.3594C214.406 93.9531 213.641 92.7969 212.672 91.8906C211.734 90.9844 210.609 90.3125 209.297 89.875C208.016 89.4375 206.625 89.2188 205.125 89.2188C202.156 89.2188 199.203 89.75 196.266 90.8125C193.359 91.8438 190.531 93.2656 187.781 95.0781C185.031 96.8906 182.391 99.0312 179.859 101.5C177.328 103.938 174.969 106.562 172.781 109.375C170.594 112.188 168.609 115.125 166.828 118.188C165.047 121.219 163.516 124.234 162.234 127.234C160.984 130.234 160.016 133.156 159.328 136C158.641 138.812 158.297 141.406 158.297 143.781C158.297 146.531 158.688 149.125 159.469 151.562C160.281 154 161.484 156.125 163.078 157.938C164.672 159.75 166.656 161.172 169.031 162.203C171.438 163.266 174.234 163.797 177.422 163.797C180.266 163.797 183.219 163.359 186.281 162.484C189.344 161.609 192.391 160.203 195.422 158.266C198.484 156.328 201.5 153.828 204.469 150.766C207.438 147.672 210.281 143.922 213 139.516L214.688 140.828C211.75 145.609 208.688 149.625 205.5 152.875C202.312 156.125 199.125 158.734 195.938 160.703C192.75 162.703 189.609 164.125 186.516 164.969C183.422 165.844 180.484 166.281 177.703 166.281C173.703 166.281 170.172 165.562 167.109 164.125C164.047 162.719 161.484 160.859 159.422 158.547C157.359 156.234 155.797 153.609 154.734 150.672C153.703 147.703 153.188 144.688 153.188 141.625C153.188 139 153.547 136.203 154.266 133.234C155.016 130.266 156.062 127.25 157.406 124.188C158.75 121.125 160.359 118.062 162.234 115C164.141 111.938 166.25 109.016 168.562 106.234C170.906 103.422 173.438 100.812 176.156 98.4062C178.875 96 181.719 93.9219 184.688 92.1719C187.688 90.3906 190.766 89 193.922 88C197.109 86.9688 200.344 86.4531 203.625 86.4531C205.688 86.4531 207.656 86.75 209.531 87.3438C211.438 87.9062 213.109 88.8125 214.547 90.0625C215.984 91.3125 217.125 92.9219 217.969 94.8906C218.812 96.8281 219.234 99.1719 219.234 101.922C219.234 103.766 218.953 105.766 218.391 107.922C217.828 110.078 217 112.25 215.906 114.438C214.844 116.594 213.531 118.688 211.969 120.719C210.438 122.75 208.688 124.547 206.719 126.109C204.781 127.641 202.625 128.875 200.25 129.812C197.906 130.75 195.406 131.219 192.75 131.219C189.906 131.219 187.422 130.75 185.297 129.812C183.203 128.844 181.406 127.656 179.906 126.25L181.312 124.703Z" fill="#F2F2F2"/>
<circle cx="128" cy="231" r="5" fill="#F2F2F2"/>
</svg>
